<svg xmlns="http://www.w3.org/2000/svg" xmlns:xlink="http://www.w3.org/1999/xlink" width="182" zoomAndPan="magnify" viewBox="0 0 136.5 144.75" height="193" preserveAspectRatio="xMidYMid meet" version="1.0"><defs><g/><clipPath id="1a3ce51cce"><path d="M 0 8 L 136 8 L 136 144.359375 L 0 144.359375 Z M 0 8 " clip-rule="nonzero"/></clipPath><clipPath id="09078cceae"><path d="M 33 0.140625 L 103 0.140625 L 103 94 L 33 94 Z M 33 0.140625 " clip-rule="nonzero"/></clipPath></defs><g clip-path="url(#1a3ce51cce)"><path fill="#052234" d="M 106.484375 20.554688 C 109.832031 22.878906 112.960938 25.496094 115.832031 28.367188 C 128.109375 40.644531 135.699219 57.601562 135.699219 76.332031 C 135.699219 85.726562 133.789062 94.675781 130.335938 102.8125 C 128.363281 101.011719 125.960938 99.300781 123.839844 97.984375 C 123.1875 97.578125 122.519531 97.183594 121.847656 96.808594 C 124.261719 90.445312 125.589844 83.542969 125.589844 76.332031 C 125.589844 60.394531 119.128906 45.964844 108.683594 35.519531 C 107.96875 34.804688 107.234375 34.109375 106.480469 33.433594 L 106.480469 20.554688 Z M 90.136719 120.652344 C 79.167969 121.707031 70.003906 117.796875 61.101562 111.679688 C 60.589844 111.328125 60.078125 110.941406 59.582031 110.523438 C 54.136719 116.230469 44.886719 119.320312 37.398438 120.398438 C 35.3125 120.699219 33.203125 120.839844 31.101562 120.828125 C 25.980469 120.800781 20.871094 119.878906 16.03125 118.207031 C 15.339844 117.96875 14.621094 117.703125 13.890625 117.414062 C 15.738281 119.84375 17.75 122.140625 19.902344 124.296875 C 32.179688 136.570312 49.136719 144.164062 67.871094 144.164062 C 86.601562 144.164062 103.558594 136.570312 115.832031 124.292969 C 119.707031 120.417969 123.113281 116.078125 125.960938 111.363281 C 120.613281 112.355469 115.523438 113.792969 110.320312 115.4375 C 109.628906 115.65625 108.9375 115.878906 108.238281 116.105469 C 102.34375 118.015625 96.34375 120.058594 90.136719 120.652344 Z M 67.871094 8.5 C 71.394531 8.5 74.859375 8.765625 78.238281 9.289062 L 61.234375 18.988281 C 47.945312 20.511719 36.027344 26.542969 27.054688 35.515625 C 16.609375 45.960938 10.148438 60.390625 10.148438 76.332031 C 10.148438 85.941406 12.5 95 16.652344 102.972656 C 13.835938 104.398438 10.953125 105.710938 7.914062 106.886719 L 7.394531 107.089844 C 2.691406 97.855469 0.0390625 87.402344 0.0390625 76.332031 C 0.0390625 57.601562 7.628906 40.640625 19.902344 28.367188 C 32.179688 16.089844 49.136719 8.5 67.871094 8.5 Z M 67.871094 8.5 " fill-opacity="1" fill-rule="nonzero"/></g><g clip-path="url(#09078cceae)"><path fill="#2b7fff" d="M 59.671875 24.539062 L 59.671875 87.039062 C 64.515625 87.589844 69.316406 89 74.167969 90.933594 C 74.800781 91.183594 75.4375 91.476562 76.066406 91.808594 L 76.066406 15.183594 Z M 86.046875 9.492188 L 86.046875 92.839844 C 91.324219 91.148438 97.308594 90.726562 102.4375 91.03125 L 102.4375 0.140625 Z M 33.296875 39.582031 L 33.296875 93.511719 C 36.691406 91.59375 40.179688 89.84375 43.867188 88.625 C 45.828125 87.976562 47.769531 87.511719 49.691406 87.210938 L 49.691406 30.230469 Z M 33.296875 39.582031 " fill-opacity="1" fill-rule="evenodd"/></g><path fill="#052234" d="M 9.375 110.65625 C 9.375 110.65625 21.40625 118.617188 36.828125 116.390625 C 48.554688 114.703125 54.882812 109.820312 57.195312 107.132812 C 59.796875 104.109375 56.269531 102.632812 54.046875 104.171875 C 51.539062 105.90625 44.878906 109.75 45.152344 107.609375 C 46.492188 97.042969 66.1875 95.074219 74.464844 100.085938 C 74.464844 100.085938 76.828125 101.582031 77.386719 99.949219 C 77.945312 98.320312 76.738281 96.304688 72.675781 94.6875 C 43.617188 83.132812 36.660156 100.113281 9.375 110.65625 " fill-opacity="1" fill-rule="evenodd"/><path fill="#2b7fff" d="M 128.660156 106.816406 C 128.660156 106.816406 118.691406 96.390625 103.167969 95.136719 C 91.359375 94.183594 84.101562 97.539062 81.253906 99.644531 C 78.042969 102.015625 81.15625 104.238281 83.664062 103.234375 C 86.492188 102.097656 93.839844 99.828125 93.097656 101.855469 C 89.445312 111.859375 69.804688 109.414062 62.847656 102.6875 C 62.847656 102.6875 60.875 100.707031 59.96875 102.171875 C 59.0625 103.636719 59.792969 105.871094 63.394531 108.351562 C 89.164062 126.0625 99.714844 111.046875 128.660156 106.816406 " fill-opacity="1" fill-rule="evenodd"/><g fill="#052234" fill-opacity="1"><g transform="translate(65.918682, 128.882371)"><g><path d="M 0.96875 0.09375 C 0.800781 0.09375 0.660156 0.0351562 0.546875 -0.078125 C 0.441406 -0.191406 0.390625 -0.332031 0.390625 -0.5 C 0.390625 -0.664062 0.441406 -0.804688 0.546875 -0.921875 C 0.660156 -1.035156 0.800781 -1.09375 0.96875 -1.09375 C 1.15625 -1.09375 1.300781 -1.035156 1.40625 -0.921875 C 1.507812 -0.804688 1.5625 -0.664062 1.5625 -0.5 C 1.5625 -0.332031 1.507812 -0.191406 1.40625 -0.078125 C 1.300781 0.0351562 1.15625 0.09375 0.96875 0.09375 Z M 0.96875 0.09375 "/></g></g></g></svg>